<svg width="58" height="11" viewBox="0 0 58 11" fill="none" xmlns="http://www.w3.org/2000/svg">
<path d="M3.88 8.11C3.41333 8.11 2.97667 8.02667 2.57 7.86C2.16333 7.69333 1.81 7.45667 1.51 7.15C1.21 6.83667 0.973333 6.45667 0.8 6.01C0.626667 5.56333 0.54 5.06333 0.54 4.51C0.54 3.95667 0.626667 3.45667 0.8 3.01C0.973333 2.56333 1.21 2.18667 1.51 1.88C1.81 1.56667 2.16333 1.32667 2.57 1.16C2.97667 0.993333 3.41333 0.909999 3.88 0.909999C4.34667 0.909999 4.78333 0.993333 5.19 1.16C5.59667 1.32667 5.95 1.56667 6.25 1.88C6.55 2.18667 6.78667 2.56333 6.96 3.01C7.13333 3.45667 7.22 3.95667 7.22 4.51C7.22 5.06333 7.13333 5.56333 6.96 6.01C6.78667 6.45667 6.55 6.83667 6.25 7.15C5.95 7.45667 5.59667 7.69333 5.19 7.86C4.78333 8.02667 4.34667 8.11 3.88 8.11ZM3.88 7.51C4.26667 7.51 4.62333 7.44333 4.95 7.31C5.27667 7.17 5.55667 6.98 5.79 6.74C6.03 6.5 6.21333 6.21667 6.34 5.89C6.47333 5.55667 6.54 5.19667 6.54 4.81V4.21C6.54 3.82333 6.47333 3.46667 6.34 3.14C6.21333 2.80667 6.03 2.52 5.79 2.28C5.55667 2.04 5.27667 1.85333 4.95 1.72C4.62333 1.58 4.26667 1.51 3.88 1.51C3.48667 1.51 3.12667 1.58 2.8 1.72C2.48 1.85333 2.2 2.04 1.96 2.28C1.72667 2.52 1.54333 2.80667 1.41 3.14C1.28333 3.46667 1.22 3.82333 1.22 4.21V4.81C1.22 5.19667 1.28333 5.55667 1.41 5.89C1.54333 6.21667 1.72667 6.5 1.96 6.74C2.2 6.98 2.48 7.17 2.8 7.31C3.12667 7.44333 3.48667 7.51 3.88 7.51ZM3.96 6.45C3.44 6.45 3.03333 6.27667 2.74 5.93C2.45333 5.57667 2.31 5.10333 2.31 4.51C2.31 3.91667 2.45333 3.44667 2.74 3.1C3.03333 2.74667 3.44 2.57 3.96 2.57C4.3 2.57 4.57667 2.65 4.79 2.81C5.01 2.97 5.17667 3.18 5.29 3.44L4.72 3.76C4.64667 3.58667 4.55 3.45 4.43 3.35C4.31 3.25 4.15333 3.2 3.96 3.2C3.66667 3.2 3.44333 3.29333 3.29 3.48C3.14333 3.66 3.07 3.89667 3.07 4.19V4.84C3.07 5.13333 3.14333 5.37333 3.29 5.56C3.44333 5.74 3.66667 5.83 3.96 5.83C4.17333 5.83 4.34333 5.77667 4.47 5.67C4.59667 5.55667 4.71 5.41 4.81 5.23L5.35 5.57C5.23667 5.82333 5.06333 6.03333 4.83 6.2C4.60333 6.36667 4.31333 6.45 3.96 6.45ZM13.517 8.12C12.6303 8.12 11.9403 7.82 11.447 7.22C10.9536 6.61333 10.707 5.72333 10.707 4.55C10.707 3.37667 10.9536 2.47667 11.447 1.85C11.9403 1.21667 12.6303 0.9 13.517 0.9C14.1036 0.9 14.5936 1.03333 14.987 1.3C15.387 1.56667 15.697 1.94333 15.917 2.43L15.237 2.84C15.097 2.48 14.8836 2.19333 14.597 1.98C14.3103 1.76 13.9503 1.65 13.517 1.65C13.217 1.65 12.947 1.70667 12.707 1.82C12.4736 1.93333 12.2736 2.09667 12.107 2.31C11.947 2.51667 11.8236 2.76667 11.737 3.06C11.6503 3.34667 11.607 3.67 11.607 4.03V5.07C11.607 5.79 11.7736 6.35333 12.107 6.76C12.4403 7.16667 12.9103 7.37 13.517 7.37C13.9636 7.37 14.337 7.25667 14.637 7.03C14.937 6.79667 15.157 6.49 15.297 6.11L15.967 6.53C15.747 7.02333 15.4303 7.41333 15.017 7.7C14.6036 7.98 14.1036 8.12 13.517 8.12ZM19.1379 8.12C18.7912 8.12 18.4746 8.05667 18.1879 7.93C17.9012 7.80333 17.6546 7.62333 17.4479 7.39C17.2479 7.15 17.0912 6.86667 16.9779 6.54C16.8646 6.20667 16.8079 5.83333 16.8079 5.42C16.8079 5.01333 16.8646 4.64333 16.9779 4.31C17.0912 3.97667 17.2479 3.69333 17.4479 3.46C17.6546 3.22 17.9012 3.03667 18.1879 2.91C18.4746 2.78333 18.7912 2.72 19.1379 2.72C19.4846 2.72 19.7979 2.78333 20.0779 2.91C20.3646 3.03667 20.6112 3.22 20.8179 3.46C21.0246 3.69333 21.1846 3.97667 21.2979 4.31C21.4112 4.64333 21.4679 5.01333 21.4679 5.42C21.4679 5.83333 21.4112 6.20667 21.2979 6.54C21.1846 6.86667 21.0246 7.15 20.8179 7.39C20.6112 7.62333 20.3646 7.80333 20.0779 7.93C19.7979 8.05667 19.4846 8.12 19.1379 8.12ZM19.1379 7.41C19.5712 7.41 19.9246 7.27667 20.1979 7.01C20.4712 6.74333 20.6079 6.33667 20.6079 5.79V5.05C20.6079 4.50333 20.4712 4.09667 20.1979 3.83C19.9246 3.56333 19.5712 3.43 19.1379 3.43C18.7046 3.43 18.3512 3.56333 18.0779 3.83C17.8046 4.09667 17.6679 4.50333 17.6679 5.05V5.79C17.6679 6.33667 17.8046 6.74333 18.0779 7.01C18.3512 7.27667 18.7046 7.41 19.1379 7.41ZM22.7836 2.84H23.5836V3.68H23.6236C23.7569 3.35333 23.9503 3.11333 24.2036 2.96C24.4636 2.8 24.7736 2.72 25.1336 2.72C25.4536 2.72 25.7436 2.78333 26.0036 2.91C26.2636 3.03667 26.4836 3.21667 26.6636 3.45C26.8503 3.68333 26.9903 3.96667 27.0836 4.3C27.1836 4.63333 27.2336 5.00667 27.2336 5.42C27.2336 5.83333 27.1836 6.20667 27.0836 6.54C26.9903 6.87333 26.8503 7.15667 26.6636 7.39C26.4836 7.62333 26.2636 7.80333 26.0036 7.93C25.7436 8.05667 25.4536 8.12 25.1336 8.12C24.4336 8.12 23.9303 7.8 23.6236 7.16H23.5836V10H22.7836V2.84ZM24.9136 7.4C25.3669 7.4 25.7236 7.26 25.9836 6.98C26.2436 6.69333 26.3736 6.32 26.3736 5.86V4.98C26.3736 4.52 26.2436 4.15 25.9836 3.87C25.7236 3.58333 25.3669 3.44 24.9136 3.44C24.7336 3.44 24.5603 3.46667 24.3936 3.52C24.2336 3.56667 24.0936 3.63333 23.9736 3.72C23.8536 3.80667 23.7569 3.91333 23.6836 4.04C23.6169 4.16 23.5836 4.29 23.5836 4.43V6.35C23.5836 6.51667 23.6169 6.66667 23.6836 6.8C23.7569 6.92667 23.8536 7.03667 23.9736 7.13C24.0936 7.21667 24.2336 7.28333 24.3936 7.33C24.5603 7.37667 24.7336 7.4 24.9136 7.4ZM31.7155 2.84H32.5055L30.1955 9.2C30.1355 9.35333 30.0755 9.48 30.0155 9.58C29.9555 9.68667 29.8822 9.77 29.7955 9.83C29.7089 9.89 29.5989 9.93333 29.4655 9.96C29.3389 9.98667 29.1822 10 28.9955 10H28.5855V9.3H29.3955L29.7855 8.2L27.8555 2.84H28.6555L29.8955 6.35L30.1355 7.19H30.1855L30.4655 6.35L31.7155 2.84ZM33.5258 8V2.84H34.3258V3.79H34.3758C34.4691 3.54333 34.6358 3.32333 34.8758 3.13C35.1158 2.93667 35.4458 2.84 35.8658 2.84H36.1758V3.64H35.7058C35.2724 3.64 34.9324 3.72333 34.6858 3.89C34.4458 4.05 34.3258 4.25333 34.3258 4.5V8H33.5258ZM37.5977 1.63C37.4243 1.63 37.2977 1.59 37.2177 1.51C37.1443 1.42333 37.1077 1.31333 37.1077 1.18V1.05C37.1077 0.916666 37.1443 0.81 37.2177 0.729999C37.2977 0.643333 37.4243 0.6 37.5977 0.6C37.771 0.6 37.8943 0.643333 37.9677 0.729999C38.0477 0.81 38.0877 0.916666 38.0877 1.05V1.18C38.0877 1.31333 38.0477 1.42333 37.9677 1.51C37.8943 1.59 37.771 1.63 37.5977 1.63ZM37.1977 2.84H37.9977V8H37.1977V2.84ZM44.0477 8.57C44.0477 9.10333 43.8377 9.49333 43.4177 9.74C43.0043 9.99333 42.381 10.12 41.5477 10.12C40.741 10.12 40.161 10.01 39.8077 9.79C39.4543 9.57 39.2777 9.25667 39.2777 8.85C39.2777 8.57 39.351 8.35 39.4977 8.19C39.6443 8.03667 39.8443 7.92333 40.0977 7.85V7.74C39.791 7.59333 39.6377 7.35333 39.6377 7.02C39.6377 6.76 39.721 6.56333 39.8877 6.43C40.0543 6.29 40.2677 6.18667 40.5277 6.12V6.08C40.221 5.93333 39.981 5.72333 39.8077 5.45C39.641 5.17667 39.5577 4.86 39.5577 4.5C39.5577 4.24 39.6043 4 39.6977 3.78C39.791 3.56 39.921 3.37333 40.0877 3.22C40.261 3.06 40.4643 2.93667 40.6977 2.85C40.9377 2.76333 41.2043 2.72 41.4977 2.72C41.8643 2.72 42.191 2.78667 42.4777 2.92V2.83C42.4777 2.63 42.5243 2.46667 42.6177 2.34C42.711 2.20667 42.8643 2.14 43.0777 2.14H43.8477V2.84H42.8677V3.17C43.0543 3.33 43.1977 3.52333 43.2977 3.75C43.4043 3.97 43.4577 4.22 43.4577 4.5C43.4577 4.76 43.411 5 43.3177 5.22C43.2243 5.44 43.091 5.63 42.9177 5.79C42.751 5.94333 42.5477 6.06333 42.3077 6.15C42.0677 6.23667 41.801 6.28 41.5077 6.28C41.341 6.28 41.1743 6.26333 41.0077 6.23C40.8343 6.27667 40.6777 6.34667 40.5377 6.44C40.3977 6.52667 40.3277 6.65 40.3277 6.81C40.3277 6.96333 40.401 7.06667 40.5477 7.12C40.6943 7.17333 40.8843 7.2 41.1177 7.2H42.2177C42.8577 7.2 43.321 7.32333 43.6077 7.57C43.901 7.81 44.0477 8.14333 44.0477 8.57ZM43.2977 8.63C43.2977 8.42333 43.2177 8.25667 43.0577 8.13C42.9043 8.01 42.6277 7.95 42.2277 7.95H40.5077C40.1877 8.09667 40.0277 8.33 40.0277 8.65C40.0277 8.87667 40.111 9.07 40.2777 9.23C40.451 9.39 40.741 9.47 41.1477 9.47H41.8877C42.3343 9.47 42.681 9.4 42.9277 9.26C43.1743 9.12 43.2977 8.91 43.2977 8.63ZM41.5077 5.64C41.8477 5.64 42.1177 5.56 42.3177 5.4C42.5177 5.23333 42.6177 4.98 42.6177 4.64V4.36C42.6177 4.02 42.5177 3.77 42.3177 3.61C42.1177 3.44333 41.8477 3.36 41.5077 3.36C41.1677 3.36 40.8977 3.44333 40.6977 3.61C40.4977 3.77 40.3977 4.02 40.3977 4.36V4.64C40.3977 4.98 40.4977 5.23333 40.6977 5.4C40.8977 5.56 41.1677 5.64 41.5077 5.64ZM44.9809 0.6H45.7809V3.68H45.8209C45.9475 3.38667 46.1242 3.15333 46.3509 2.98C46.5842 2.80667 46.8942 2.72 47.2809 2.72C47.8142 2.72 48.2342 2.89333 48.5409 3.24C48.8542 3.58 49.0109 4.06333 49.0109 4.69V8H48.2109V4.83C48.2109 3.90333 47.8209 3.44 47.0409 3.44C46.8809 3.44 46.7242 3.46 46.5709 3.5C46.4242 3.54 46.2909 3.6 46.1709 3.68C46.0509 3.76 45.9542 3.86333 45.8809 3.99C45.8142 4.11 45.7809 4.25333 45.7809 4.42V8H44.9809V0.6ZM51.8045 8C51.5245 8 51.3111 7.92333 51.1645 7.77C51.0245 7.61 50.9545 7.40333 50.9545 7.15V3.54H50.1045V2.84H50.5845C50.7578 2.84 50.8745 2.80667 50.9345 2.74C51.0011 2.66667 51.0345 2.54333 51.0345 2.37V1.41H51.7545V2.84H52.8845V3.54H51.7545V7.3H52.8045V8H51.8045ZM55.7203 8.12C55.2403 8.12 54.837 8.03 54.5103 7.85C54.1903 7.66333 53.9136 7.41667 53.6803 7.11L54.2503 6.65C54.4503 6.90333 54.6736 7.1 54.9203 7.24C55.167 7.37333 55.4536 7.44 55.7803 7.44C56.1203 7.44 56.3836 7.36667 56.5703 7.22C56.7636 7.07333 56.8603 6.86667 56.8603 6.6C56.8603 6.4 56.7936 6.23 56.6603 6.09C56.5336 5.94333 56.3003 5.84333 55.9603 5.79L55.5503 5.73C55.3103 5.69667 55.0903 5.64667 54.8903 5.58C54.6903 5.50667 54.5136 5.41333 54.3603 5.3C54.2136 5.18 54.097 5.03333 54.0103 4.86C53.9303 4.68667 53.8903 4.48 53.8903 4.24C53.8903 3.98667 53.937 3.76667 54.0303 3.58C54.1236 3.38667 54.2503 3.22667 54.4103 3.1C54.577 2.97333 54.7736 2.88 55.0003 2.82C55.227 2.75333 55.4703 2.72 55.7303 2.72C56.1503 2.72 56.5003 2.79333 56.7803 2.94C57.067 3.08667 57.317 3.29 57.5303 3.55L57.0003 4.03C56.887 3.87 56.7203 3.72667 56.5003 3.6C56.2803 3.46667 56.0036 3.4 55.6703 3.4C55.337 3.4 55.0836 3.47333 54.9103 3.62C54.7436 3.76 54.6603 3.95333 54.6603 4.2C54.6603 4.45333 54.7436 4.63667 54.9103 4.75C55.0836 4.86333 55.3303 4.94667 55.6503 5L56.0503 5.06C56.6236 5.14667 57.0303 5.31333 57.2703 5.56C57.5103 5.8 57.6303 6.11667 57.6303 6.51C57.6303 7.01 57.4603 7.40333 57.1203 7.69C56.7803 7.97667 56.3136 8.12 55.7203 8.12Z" fill="#818181"/>
</svg>
