<svg width="18" height="18" viewBox="0 0 18 18" fill="none" xmlns="http://www.w3.org/2000/svg">
<path d="M0.75 0H6V6H0V0.75C0 0.551088 0.0790176 0.360322 0.21967 0.21967C0.360322 0.0790176 0.551088 0 0.75 0V0Z" fill="#282828"/>
<path d="M12 6H6V12H12V6Z" fill="#282828"/>
<path d="M12 0H17.25C17.4489 0 17.6397 0.0790176 17.7803 0.21967C17.921 0.360322 18 0.551088 18 0.75V6H12V0Z" fill="#282828"/>
<path d="M0 12H6V18H0.75C0.551088 18 0.360322 17.921 0.21967 17.7803C0.0790176 17.6397 0 17.4489 0 17.25V12Z" fill="#282828"/>
<path d="M12 12H18V17.25C18 17.4489 17.921 17.6397 17.7803 17.7803C17.6397 17.921 17.4489 18 17.25 18H12V12Z" fill="#282828"/>
</svg>
