<svg width="18" height="18" viewBox="0 0 18 18" fill="none" xmlns="http://www.w3.org/2000/svg">
<path d="M8.25 5.25L11.5605 1.9395C11.6998 1.80015 11.8652 1.68961 12.0472 1.61419C12.2292 1.53877 12.4243 1.49995 12.6214 1.49995C12.8184 1.49995 13.0135 1.53877 13.1955 1.61419C13.3776 1.68961 13.543 1.80015 13.6822 1.9395L16.0605 4.31775C16.1999 4.45705 16.3104 4.62243 16.3858 4.80446C16.4612 4.98649 16.5001 5.18159 16.5001 5.37863C16.5001 5.57566 16.4612 5.77076 16.3858 5.95279C16.3104 6.13482 16.1999 6.30021 16.0605 6.4395L12.75 9.75" stroke="#818181" stroke-width="2" stroke-miterlimit="10" stroke-linecap="square"/>
<path d="M9.74999 12.75L6.43949 16.0605C6.3002 16.1999 6.13481 16.3104 5.95278 16.3858C5.77076 16.4612 5.57565 16.5001 5.37862 16.5001C5.18158 16.5001 4.98648 16.4612 4.80445 16.3858C4.62242 16.3104 4.45704 16.1999 4.31774 16.0605L1.93949 13.6823C1.80014 13.543 1.6896 13.3776 1.61418 13.1955C1.53876 13.0135 1.49994 12.8184 1.49994 12.6214C1.49994 12.4243 1.53876 12.2292 1.61418 12.0472C1.6896 11.8652 1.80014 11.6998 1.93949 11.5605L5.24999 8.25001" stroke="#818181" stroke-width="2" stroke-miterlimit="10" stroke-linecap="square"/>
<path d="M6.75 11.25L11.25 6.75001" stroke="#818181" stroke-width="2" stroke-miterlimit="10" stroke-linecap="square"/>
</svg>
