<?xml version="1.0" standalone="no"?>
<!DOCTYPE svg PUBLIC "-//W3C//DTD SVG 20010904//EN"
 "http://www.w3.org/TR/2001/REC-SVG-20010904/DTD/svg10.dtd">
<svg version="1.0" xmlns="http://www.w3.org/2000/svg"
 width="89.000000pt" height="21.000000pt" viewBox="0 0 89.000000 21.000000"
 preserveAspectRatio="xMidYMid meet">
<metadata>
Created by potrace 1.15, written by Peter Selinger 2001-2017
</metadata>
<g transform="translate(0.000000,21.000000) scale(0.100000,-0.100000)"
fill="#000000" stroke="none">
<path d="M44 192 c-53 -43 -58 -105 -13 -157 26 -30 38 -35 73 -35 23 0 51 6
61 14 19 14 19 15 2 33 -9 11 -14 23 -11 26 4 4 2 12 -3 19 -6 7 -8 28 -6 46
5 32 6 32 20 12 9 -12 13 -37 11 -62 -4 -52 16 -61 36 -16 8 19 15 26 15 16 1
-24 32 -38 81 -38 27 0 43 5 47 15 5 14 8 14 22 1 11 -9 40 -14 94 -14 69 0
77 2 77 19 0 10 7 19 15 19 8 0 15 -8 15 -19 0 -15 8 -19 54 -20 30 0 58 4 61
10 5 7 12 6 22 -3 12 -10 17 -9 28 5 11 15 14 16 25 2 17 -21 120 -21 120 -1
0 8 -10 16 -22 18 -15 2 -24 11 -26 26 -3 18 1 22 22 22 16 0 26 6 26 15 0 20
-98 18 -122 -3 -16 -13 -18 -13 -18 1 0 10 -8 17 -20 17 -11 0 -20 -5 -20 -10
0 -7 -6 -7 -19 0 -11 5 -40 10 -65 10 -39 0 -46 -3 -46 -20 0 -11 -7 -20 -15
-20 -8 0 -15 9 -15 20 0 11 -7 20 -15 20 -8 0 -15 -5 -15 -12 0 -9 -3 -9 -12
0 -16 16 -120 16 -136 0 -9 -9 -12 -9 -12 0 0 16 -91 16 -112 0 -9 -7 -18 -20
-21 -28 -3 -9 -8 -2 -12 17 -14 62 -120 96 -171 55z"/>
</g>
</svg>
