<svg width="18" height="18" viewBox="0 0 18 18" fill="none" xmlns="http://www.w3.org/2000/svg">
<path d="M17.2957 15.7043L12.996 11.4045C13.9804 10.021 14.4091 8.31803 14.197 6.63329C13.9849 4.94856 13.1475 3.40501 11.8509 2.30863C10.5543 1.21224 8.893 0.643071 7.19644 0.713934C5.49989 0.784797 3.89188 1.49052 2.69119 2.69122C1.4905 3.89191 0.784774 5.49991 0.713911 7.19647C0.643048 8.89302 1.21222 10.5543 2.3086 11.8509C3.40499 13.1476 4.94853 13.9849 6.63327 14.197C8.31801 14.4091 10.0209 13.9804 11.4045 12.996L15.7042 17.2958L17.2957 15.7043ZM2.24999 7.50001C2.24999 6.46166 2.5579 5.44663 3.13478 4.58327C3.71165 3.71991 4.53159 3.04701 5.4909 2.64965C6.45022 2.25229 7.50582 2.14832 8.52422 2.35089C9.54262 2.55346 10.4781 3.05348 11.2123 3.7877C11.9465 4.52193 12.4465 5.45739 12.6491 6.47579C12.8517 7.49419 12.7477 8.54979 12.3504 9.5091C11.953 10.4684 11.2801 11.2884 10.4167 11.8652C9.55338 12.4421 8.53834 12.75 7.49999 12.75C6.10809 12.7484 4.77366 12.1948 3.78943 11.2106C2.80521 10.2263 2.25158 8.89191 2.24999 7.50001Z" fill="#818181"/>
</svg>
